<svg width="323" height="41" viewBox="0 0 323 41" fill="none" xmlns="http://www.w3.org/2000/svg">
<path fill-rule="evenodd" clip-rule="evenodd" d="M15.7197 22.505C15.1654 23.283 14.4299 23.9164 13.576 24.3513C12.722 24.7861 11.7748 25.0096 10.8151 25.0025C7.75514 25.0025 5.44966 22.6715 5.44966 19.5079C5.44966 16.5939 7.5032 13.9714 10.6894 13.9714C11.666 13.9685 12.6298 14.193 13.5034 14.6267C14.3769 15.0604 15.136 15.6914 15.7197 16.469V22.505ZM21.169 29.5816V0.0273438H15.7197V10.8503C14.1268 9.60154 12.1984 8.97715 9.97677 8.97715C4.44364 8.97715 0.000151962 13.556 0.000151962 19.5098C-0.013615 22.1013 0.908436 24.612 2.59905 26.5862C3.56093 27.6627 4.74235 28.5238 6.0649 29.1123C7.38746 29.7008 8.82093 30.0033 10.2702 29.9998C12.3439 30.0283 14.3566 29.303 15.9293 27.9605V29.5839H21.169V29.5816ZM41.4986 22.505C40.9443 23.283 40.2089 23.9164 39.3549 24.3513C38.5009 24.7861 37.5538 25.0096 36.5941 25.0025C33.5341 25.0025 31.2286 22.6715 31.2286 19.5079C31.2286 16.5939 33.2822 13.9714 36.4683 13.9714C37.445 13.9685 38.4088 14.193 39.2823 14.6267C40.1559 15.0604 40.915 15.6914 41.4986 16.469V22.505ZM46.9486 9.39341H41.7089V11.0168C40.0232 9.67153 37.9187 8.95056 35.7564 8.97757C30.2232 8.97757 25.7797 13.5564 25.7797 19.5102C25.766 22.1018 26.688 24.6124 28.3786 26.5866C29.3405 27.6632 30.5219 28.5242 31.8445 29.1127C33.167 29.7013 34.6005 30.0038 36.0498 30.0002C38.1235 30.0287 40.1362 29.3034 41.7089 27.9609V29.5843H46.9486V9.39341ZM58.6849 29.5825V16.47C59.4394 15.5126 61.1161 13.9725 63.4216 13.9725C63.9912 13.9571 64.5577 14.0602 65.0848 14.2753C65.6118 14.4903 66.0877 14.8126 66.4818 15.2213C67.1106 15.9289 67.4878 16.8447 67.4878 18.6762V29.5825H72.9371V18.8844C72.9293 18.1323 72.8733 17.3815 72.7695 16.6366C73.4821 15.5959 75.3264 13.9725 77.674 13.9725C78.2436 13.957 78.8101 14.0602 79.3371 14.2752C79.8641 14.4903 80.34 14.8126 80.734 15.2213C81.3628 15.9289 81.7401 16.8447 81.7401 18.6762V29.5825H87.1893V18.8844C87.1893 15.8873 86.4348 13.806 85.1358 12.224C83.501 10.2268 80.8183 8.97715 78.0098 8.97715C74.9915 8.97715 72.4345 10.4341 70.7997 12.1407C69.9652 11.1469 68.9202 10.3481 67.7391 9.80124C66.558 9.25441 65.2701 8.97303 63.967 8.97715C61.944 8.95047 59.9846 9.67814 58.4757 11.0164V9.39341H53.2348V29.5825H58.6843H58.6849ZM98.5059 0.0273438H93.0566V29.5825H98.5059V0.0273438Z" fill="#F7F9FC"/>
<path fill-rule="evenodd" clip-rule="evenodd" d="M119.28 18.623L115.998 28.976H109.436L112.718 18.623H119.28Z" fill="#F7F9FC"/>
<path fill-rule="evenodd" clip-rule="evenodd" d="M125.185 0L121.819 10.6159H115.257L118.623 0.000413162L125.185 0Z" fill="#577FF1"/>
<path d="M149.818 20.997C149.86 20.619 149.86 20.325 149.86 20.157C149.86 14.319 145.87 9.86695 140.368 9.86695C134.782 9.86695 130.75 14.235 130.75 20.157C130.75 26.079 135.202 30.447 140.956 30.447C144.988 30.447 147.802 28.641 149.272 26.751L146.668 24.273C145.534 25.533 143.938 26.961 140.998 26.961C137.554 26.961 134.824 24.315 134.614 20.997H149.818ZM140.494 13.353C142.846 13.353 145.114 15.117 145.702 17.637H134.95C135.622 15.075 137.932 13.353 140.494 13.353Z" fill="#577FF1"/>
<path d="M158.761 10.287H154.897V30.027H158.887V16.461C160.063 15.033 161.953 13.647 164.557 13.647C166.195 13.647 167.707 14.403 168.631 15.579C169.345 16.461 169.807 17.637 169.807 20.157V30.027H173.797V20.367C173.797 16.965 173.125 14.949 171.865 13.353C170.185 11.211 167.581 9.86695 164.683 9.86695C161.827 9.86695 159.811 11.169 158.761 12.177V10.287Z" fill="#577FF1"/>
<path d="M191.289 26.415C190.701 26.583 189.693 26.667 189.105 26.667C188.055 26.667 186.921 26.289 186.375 25.617C185.871 25.029 185.787 24.147 185.787 23.097V13.857H192.087V10.287H185.787V4.82695H181.797V10.287H176.757V13.857H181.797V22.887C181.797 25.029 182.217 26.835 183.393 28.137C184.653 29.565 186.501 30.447 188.979 30.447C190.113 30.447 191.331 30.279 192.087 30.027L191.289 26.415Z" fill="#577FF1"/>
<path d="M213.896 20.997C213.938 20.619 213.938 20.325 213.938 20.157C213.938 14.319 209.948 9.86695 204.446 9.86695C198.86 9.86695 194.828 14.235 194.828 20.157C194.828 26.079 199.28 30.447 205.034 30.447C209.066 30.447 211.88 28.641 213.35 26.751L210.746 24.273C209.612 25.533 208.016 26.961 205.076 26.961C201.632 26.961 198.902 24.315 198.692 20.997H213.896ZM204.572 13.353C206.924 13.353 209.192 15.117 209.78 17.637H199.028C199.7 15.075 202.01 13.353 204.572 13.353Z" fill="#577FF1"/>
<path d="M230.315 9.99295C229.853 9.90895 229.181 9.86695 228.761 9.86695C225.863 9.86695 223.805 11.211 222.839 12.555V10.287H218.975V30.027H222.965V16.965C224.057 15.075 226.241 13.647 228.299 13.647C228.929 13.647 229.391 13.689 229.853 13.815L230.315 9.99295Z" fill="#577FF1"/>
<path d="M238.705 28.305C240.301 29.691 242.317 30.447 244.669 30.447C246.433 30.447 248.281 29.943 249.625 29.145C252.607 27.381 254.665 24.105 254.665 20.157C254.665 16.209 252.565 12.891 249.583 11.127C248.239 10.329 246.601 9.86695 244.753 9.86695C242.527 9.86695 240.385 10.539 238.579 12.093V10.287H234.715V40.107H238.705V28.305ZM238.705 16.461C239.923 14.865 241.939 13.647 244.333 13.647C248.155 13.647 250.675 16.713 250.675 20.157C250.675 23.685 247.945 26.667 244.123 26.667C242.107 26.667 240.049 25.659 238.705 23.853V16.461Z" fill="#577FF1"/>
<path d="M271.065 9.99295C270.603 9.90895 269.931 9.86695 269.511 9.86695C266.613 9.86695 264.555 11.211 263.589 12.555V10.287H259.725V30.027H263.715V16.965C264.807 15.075 266.991 13.647 269.049 13.647C269.679 13.647 270.141 13.689 270.603 13.815L271.065 9.99295Z" fill="#577FF1"/>
<path d="M275.465 30.027H279.455V10.287H275.465V30.027ZM274.835 3.27295C274.835 4.74295 275.969 5.87695 277.439 5.87695C278.909 5.87695 280.085 4.74295 280.085 3.27295C280.085 1.80295 278.909 0.626953 277.439 0.626953C275.969 0.626953 274.835 1.80295 274.835 3.27295Z" fill="#577FF1"/>
<path d="M284.27 27.717C286.454 29.481 289.1 30.447 292.25 30.447C296.114 30.447 299.6 28.137 299.6 24.399C299.6 20.325 295.526 18.939 292.418 18.141C290.444 17.637 288.89 17.175 288.89 15.831C288.89 14.277 290.528 13.353 292.46 13.353C294.056 13.353 295.484 13.983 296.702 14.907L298.76 12.051C297.206 10.791 295.106 9.86695 292.208 9.86695C288.68 9.86695 284.9 11.799 284.9 16.041C284.9 18.813 287.042 20.325 289.436 21.123C292.334 22.089 295.61 22.215 295.61 24.483C295.61 26.037 293.888 26.961 292.166 26.961C290.192 26.961 288.176 26.205 286.328 24.777L284.27 27.717Z" fill="#577FF1"/>
<path d="M322.241 20.997C322.283 20.619 322.283 20.325 322.283 20.157C322.283 14.319 318.293 9.86695 312.791 9.86695C307.205 9.86695 303.173 14.235 303.173 20.157C303.173 26.079 307.625 30.447 313.379 30.447C317.411 30.447 320.225 28.641 321.695 26.751L319.091 24.273C317.957 25.533 316.361 26.961 313.421 26.961C309.977 26.961 307.247 24.315 307.037 20.997H322.241ZM312.917 13.353C315.27 13.353 317.537 15.117 318.125 17.637H307.373C308.045 15.075 310.355 13.353 312.917 13.353Z" fill="#577FF1"/>
</svg>
