<svg width="201" height="32" viewBox="0 0 201 32" fill="none" xmlns="http://www.w3.org/2000/svg">
<path fill-rule="evenodd" clip-rule="evenodd" d="M15.3198 23.2823C14.7796 24.0603 14.0629 24.6937 13.2306 25.1286C12.3984 25.5635 11.4753 25.7869 10.54 25.7799C7.55786 25.7799 5.31103 23.4488 5.31103 20.2852C5.31103 17.3712 7.31233 14.7488 10.4174 14.7488C11.3693 14.7459 12.3085 14.9703 13.1599 15.404C14.0112 15.8378 14.751 16.4687 15.3198 17.2463V23.2823ZM20.6305 30.359V0.804688H15.3198V11.6277C13.7675 10.3789 11.8881 9.75449 9.72298 9.75449C4.3306 9.75449 0.000148096 14.3334 0.000148096 20.2871C-0.0132686 22.8787 0.885327 25.3893 2.53293 27.3636C3.47035 28.4401 4.62171 29.3012 5.91062 29.8897C7.19954 30.4782 8.59654 30.7807 10.0089 30.7771C12.0299 30.8056 13.9914 30.0804 15.5241 28.7379V30.3613H20.6305V30.359ZM40.443 23.2823C39.9028 24.0603 39.186 24.6937 38.3538 25.1286C37.5215 25.5635 36.5984 25.7869 35.6632 25.7799C32.681 25.7799 30.4342 23.4488 30.4342 20.2852C30.4342 17.3712 32.4355 14.7488 35.5406 14.7488C36.4924 14.7459 37.4317 14.9703 38.283 15.404C39.1344 15.8378 39.8741 16.4687 40.443 17.2463V23.2823ZM45.7543 10.1708H40.6479V11.7942C39.0051 10.4489 36.9541 9.7279 34.8468 9.75491C29.4544 9.75491 25.1239 14.3338 25.1239 20.2876C25.1105 22.8791 26.0091 25.3897 27.6567 27.364C28.5941 28.4405 29.7455 29.3016 31.0344 29.8901C32.3233 30.4786 33.7203 30.7811 35.1327 30.7775C37.1537 30.806 39.1152 30.0808 40.6479 28.7383V30.3617H45.7543V10.1708ZM57.192 30.3598V17.2474C57.9274 16.29 59.5614 14.7498 61.8082 14.7498C62.3633 14.7344 62.9155 14.8375 63.4291 15.0526C63.9428 15.2677 64.4065 15.5899 64.7906 15.9986C65.4034 16.7063 65.771 17.622 65.771 19.4536V30.3598H71.0817V19.6617C71.0741 18.9097 71.0195 18.1589 70.9183 17.4139C71.6128 16.3732 73.4102 14.7498 75.6981 14.7498C76.2532 14.7344 76.8053 14.8375 77.3189 15.0526C77.8325 15.2677 78.2962 15.5899 78.6803 15.9986C79.293 16.7063 79.6607 17.622 79.6607 19.4536V30.3598H84.9714V19.6617C84.9714 16.6646 84.2361 14.5833 82.9701 13.0013C81.3769 11.0041 78.7624 9.75449 76.0253 9.75449C73.0838 9.75449 70.5919 11.2114 68.9987 12.9181C68.1854 11.9242 67.1669 11.1254 66.0159 10.5786C64.8649 10.0318 63.6097 9.75037 62.3397 9.75449C60.3683 9.72781 58.4587 10.4555 56.9882 11.7937V10.1708H51.8805V30.3598H57.1914H57.192ZM96 0.804688H90.6893V30.3598H96V0.804688Z" fill="#F7F9FC"/>
<path fill-rule="evenodd" clip-rule="evenodd" d="M116.246 19.4004L113.047 29.7533H106.652L109.85 19.4004H116.246Z" fill="#F7F9FC"/>
<path fill-rule="evenodd" clip-rule="evenodd" d="M122 0.777344L118.72 11.3933H112.325L115.605 0.777757L122 0.777344Z" fill="#577FF1"/>
<path d="M134.56 0.984375H130.57V30.8044H134.56V17.2384C135.736 15.8104 137.626 14.4244 140.23 14.4244C141.868 14.4244 143.38 15.1804 144.304 16.3564C145.018 17.2384 145.48 18.4144 145.48 20.9344V30.8044H149.47V21.1444C149.47 17.7424 148.798 15.7264 147.538 14.1304C145.858 11.9884 143.254 10.6444 140.356 10.6444C137.626 10.6444 135.652 11.8624 134.56 12.7864V0.984375Z" fill="#577FF1"/>
<path d="M164.185 31.2244C166.915 31.2244 169.099 29.8384 169.981 28.9984V30.8044H173.845V11.0644H169.855V24.6304C168.721 25.9744 166.747 27.4444 164.311 27.4444C162.799 27.4444 161.371 26.7724 160.489 25.7224C159.775 24.8824 159.355 23.7904 159.355 21.7744V11.0644H155.365V21.1444C155.365 24.4624 155.953 26.3944 157.171 27.9064C158.809 29.9644 161.371 31.2244 164.185 31.2244Z" fill="#577FF1"/>
<path d="M184.412 28.9984C186.008 30.4264 188.15 31.2244 190.502 31.2244C192.266 31.2244 194.114 30.7204 195.458 29.9224C198.44 28.1584 200.498 24.8824 200.498 20.9344C200.498 16.9864 198.398 13.6684 195.416 11.9044C194.072 11.1064 192.434 10.6444 190.586 10.6444C188.444 10.6444 186.302 11.3164 184.538 12.7864V0.984375H180.548V30.8044H184.412V28.9984ZM184.538 17.2384C185.756 15.6424 187.772 14.4244 190.166 14.4244C193.988 14.4244 196.508 17.4904 196.508 20.9344C196.508 24.4624 193.778 27.4444 189.956 27.4444C187.94 27.4444 185.882 26.4364 184.538 24.6304V17.2384Z" fill="#577FF1"/>
</svg>
