<svg id="Products" xmlns="http://www.w3.org/2000/svg" width="984" height="164" viewBox="0 0 984 164">
  <defs>
    <style>
      .cls-1 {
        fill: #3c73f7;
      }

      .cls-1, .cls-2 {
        fill-rule: evenodd;
      }

      .cls-2 {
        fill: #1f2a38;
      }
    </style>
  </defs>
  <g id="light">
    <g id="hub">
      <path id="hub-2" data-name="hub" class="cls-1" d="M664.314,9.453H645.727V148.8h18.587V85.409c5.478-6.673,14.283-13.15,26.413-13.15a24.221,24.221,0,0,1,18.978,9.028c3.326,4.122,5.479,9.617,5.479,21.393V148.8h18.587V103.661c0-15.9-3.131-25.318-9-32.776a42.341,42.341,0,0,0-33.457-16.29,41.664,41.664,0,0,0-27,10.01V9.453ZM804.2,150.766a41.416,41.416,0,0,0,27-10.4v8.44h18V56.557H830.613v63.395c-5.282,6.28-14.478,13.15-25.826,13.15a23.457,23.457,0,0,1-17.8-8.047c-3.326-3.926-5.283-9.029-5.283-18.45V56.557H763.113v47.1c0,15.506,2.739,24.534,8.413,31.6A41.561,41.561,0,0,0,804.2,150.766Zm96.257-10.4a42.081,42.081,0,0,0,28.37,10.4,47.019,47.019,0,0,0,23.086-6.085,48.282,48.282,0,0,0,23.479-42,48.779,48.779,0,0,0-23.674-42.2A45.2,45.2,0,0,0,901.044,64.6V9.453H882.457V148.8h18v-8.44Zm0.587-54.954a33.1,33.1,0,0,1,26.217-13.15c17.805,0,29.544,14.328,29.544,30.421A30.072,30.072,0,0,1,926.283,133.1a31.882,31.882,0,0,1-25.239-13.15V85.409Z"/>
      <path id="daml_copy" data-name="daml    copy" class="cls-2" d="M79.761,115.437A27.762,27.762,0,0,1,56.87,127.213c-14.283,0-25.043-10.99-25.043-25.907,0-13.739,9.587-26.1,24.457-26.1A29.144,29.144,0,0,1,79.761,86.979v28.458ZM105.2,148.8V9.453H79.761v51.03c-7.435-5.888-16.435-8.832-26.8-8.832-25.826,0-46.565,21.589-46.565,49.655a51.186,51.186,0,0,0,12.13,33.366,47.645,47.645,0,0,0,35.8,16.094,39.6,39.6,0,0,0,26.413-9.618V148.8H105.2Zm94.887-33.366a27.762,27.762,0,0,1-22.891,11.776c-14.283,0-25.044-10.99-25.044-25.907,0-13.739,9.587-26.1,24.457-26.1a29.144,29.144,0,0,1,23.478,11.776v28.458Zm25.435-61.824H201.061v7.654a43.382,43.382,0,0,0-27.782-9.617c-25.826,0-46.565,21.589-46.565,49.655a51.184,51.184,0,0,0,12.13,33.366,47.644,47.644,0,0,0,35.8,16.094,39.6,39.6,0,0,0,26.413-9.618V148.8h24.457V53.613ZM280.3,148.8V86.979C283.818,82.465,291.644,75.2,302.4,75.2a19.026,19.026,0,0,1,14.283,5.888c2.934,3.337,4.695,7.654,4.695,16.29V148.8h25.435V98.362a83.732,83.732,0,0,0-.783-10.6C349.361,82.857,357.97,75.2,368.927,75.2a19.022,19.022,0,0,1,14.282,5.888c2.935,3.337,4.7,7.654,4.7,16.29V148.8H413.34V98.362c0-14.131-3.522-23.945-9.587-31.4-7.631-9.421-20.152-15.309-33.261-15.309-14.087,0-26.022,6.869-33.652,14.916a41.3,41.3,0,0,0-31.892-14.916,37.656,37.656,0,0,0-25.63,9.617V53.613H254.861V148.8H280.3ZM466.162,9.453H440.727V148.8h25.435V9.453Z"/>
      <g id="A_copy" data-name="A copy">
        <path class="cls-2" d="M565.872,98.346l-15.284,49.672H520.027l15.284-49.672h30.561Z"/>
        <path id="Rectangle_2_copy" data-name="Rectangle 2 copy" class="cls-1" d="M593.37,8.99L577.7,59.922H547.136l15.675-50.93Z"/>
      </g>
    </g>
  </g>
</svg>
