<svg width="298" height="61" viewBox="0 0 298 61" fill="none" xmlns="http://www.w3.org/2000/svg">
<path d="M84.8496 47.6011H74.4504V15.8994H84.9756C90.837 15.8994 95.942 17.7902 95.942 23.7776C95.942 27.8742 93.7361 30.1431 90.3328 31.0255V31.0885C94.1143 31.6557 97.2655 34.1767 97.2655 38.7145C97.2655 45.2692 92.0975 47.6011 84.8496 47.6011ZM84.2823 21.0675H80.3748V28.9456H84.0933C87.6857 28.9456 89.2613 27.6851 89.2613 24.849C89.3244 22.265 87.6227 21.0675 84.2823 21.0675ZM84.2193 33.7355H80.4378V42.433H83.9672C87.8117 42.433 89.8916 41.2355 89.8916 38.2103C89.8286 35.2482 88.1269 33.7355 84.2193 33.7355Z" fill="black"/>
<path d="M114.534 30.0173C114.156 29.7652 113.463 29.5131 112.076 29.5131C109.24 29.5131 107.602 31.9711 107.034 33.0425V47.6013H100.732V24.408H107.034V27.5593C108.043 25.8576 109.934 23.8408 112.896 23.8408C114.597 23.8408 115.48 24.1559 116.047 24.4711L114.534 30.0173Z" fill="black"/>
<path d="M127.329 48.1686C119.261 48.1686 115.732 42.0551 115.732 36.0677C115.732 30.1433 119.198 23.8408 127.266 23.8408C135.333 23.8408 138.988 29.9543 138.988 35.8786C138.988 41.74 135.459 48.1686 127.329 48.1686ZM127.203 28.5677C123.61 28.5677 122.413 31.5929 122.413 35.8786C122.413 40.1644 123.862 43.3156 127.392 43.3156C130.984 43.3156 132.308 40.3534 132.308 36.0047C132.308 31.719 130.795 28.5677 127.203 28.5677Z" fill="black"/>
<path d="M154.555 47.6018C154.366 47.0345 154.24 45.8371 154.177 45.1438C153.106 46.4043 150.963 48.169 147.686 48.169C143.715 48.169 140.69 45.774 140.69 41.6774C140.69 35.627 146.929 33.4211 153.043 33.4211H153.862V32.0976C153.862 30.0808 153.043 28.8833 150.081 28.8833C147.118 28.8833 145.039 30.4589 144.156 31.0892L141.383 27.2446C142.77 25.9841 145.795 23.9043 150.774 23.9043C157.076 23.9043 160.102 26.3623 160.102 32.4757V40.7951C160.102 43.9463 160.417 46.1522 160.795 47.6648H154.555V47.6018ZM153.232 37.3287H152.413C148.694 37.3287 146.11 38.4001 146.11 41.1102C146.11 42.8119 147.497 43.5051 148.883 43.5051C151.152 43.5051 152.476 42.1816 153.169 41.4253V37.3287H153.232Z" fill="black"/>
<path d="M173.778 23.841C176.614 23.841 178.316 24.8494 179.135 25.4797V13.5049H185.438V40.9839C185.438 44.0091 185.816 46.341 186.131 47.6015H179.955C179.766 47.0343 179.513 45.7738 179.45 45.0805C178.001 46.7822 176.047 48.2318 172.959 48.2318C167.16 48.2318 163.442 43.883 163.442 36.1309C163.442 28.6309 167.854 23.841 173.778 23.841ZM174.85 43.1267C177.118 43.1267 178.631 41.4881 179.198 40.7948V30.3326C178.379 29.6393 177.181 28.82 175.165 28.82C171.95 28.82 170.186 31.5301 170.186 36.0679C170.123 40.4797 171.572 43.1267 174.85 43.1267Z" fill="black"/>
<path d="M204.093 30.0173C203.715 29.7652 203.022 29.5131 201.698 29.5131C198.862 29.5131 197.224 31.9711 196.656 33.0425V47.6013H190.354V24.408H196.656V27.5593C197.665 25.8576 199.555 23.8408 202.518 23.8408C204.219 23.8408 205.165 24.1559 205.669 24.4711L204.093 30.0173Z" fill="black"/>
<path d="M211.215 21.446C209.135 21.446 207.623 19.8073 207.623 17.9166C207.623 16.0889 209.135 14.4502 211.215 14.4502C213.295 14.4502 214.808 16.0258 214.808 17.9166C214.871 19.8073 213.295 21.446 211.215 21.446Z" fill="black"/>
<path d="M214.429 24.4082H208.064V47.6015H214.429V24.4082Z" fill="black"/>
<path d="M228.295 23.841C231.131 23.841 232.833 24.8494 233.652 25.4797V13.5049H239.955V40.9839C239.955 44.0091 240.333 46.341 240.648 47.6015H234.408C234.219 47.0343 233.967 45.7738 233.904 45.0805C232.455 46.7822 230.501 48.2318 227.413 48.2318C221.614 48.2318 217.896 43.883 217.896 36.1309C217.896 28.6309 222.371 23.841 228.295 23.841ZM229.366 43.1267C231.635 43.1267 233.148 41.4881 233.715 40.7948V30.3326C232.896 29.6393 231.698 28.82 229.682 28.82C226.467 28.82 224.703 31.5301 224.703 36.0679C224.639 40.4797 226.089 43.1267 229.366 43.1267Z" fill="black"/>
<path d="M266.047 23.8408V28.5677H262.959C263.526 29.6391 263.841 30.9627 263.841 32.2862C263.841 37.2022 260.312 40.6686 253.82 40.6686C252.812 40.6686 251.929 40.5425 251.047 40.4165C250.669 40.7316 250.165 41.1097 250.165 41.803C250.165 43.0635 251.488 43.2526 254.829 43.4417C259.618 43.6938 265.732 43.7568 265.732 50.5635C265.732 55.4795 260.627 58.9459 253.064 58.9459C246.698 58.9459 242.854 56.9291 242.854 52.7694C242.854 50.1854 244.429 48.3576 246.761 47.0971C245.501 46.3408 244.745 45.2694 244.745 43.5677C244.745 41.3618 246.005 40.0383 247.329 39.219C244.745 37.7694 243.169 35.3114 243.169 32.2862C243.169 27.3072 247.013 23.8408 253.442 23.8408C255.081 23.8408 266.047 23.8408 266.047 23.8408ZM248.337 51.5719C248.337 53.4627 249.597 54.7232 252.875 54.7232C256.719 54.7232 258.925 53.2736 258.925 51.3198C258.925 48.8618 256.719 48.9249 253.379 48.6728C252.308 48.6097 251.236 48.4837 250.228 48.3576C248.967 49.177 248.337 50.1854 248.337 51.5719ZM257.728 32.2862C257.728 29.5761 256.152 28.0005 253.568 28.0005C250.984 28.0005 249.408 29.5761 249.408 32.2862C249.408 34.9333 250.984 36.5719 253.568 36.5719C256.152 36.5719 257.728 34.9333 257.728 32.2862Z" fill="black"/>
<path d="M279.85 43.4422C283.001 43.4422 284.766 42.3708 285.9 41.8035L287.917 45.9002C286.404 46.7825 284.009 48.1061 279.282 48.1061C271.53 48.1061 267.182 43.1901 267.182 35.8161C267.182 28.5052 272.224 23.7783 278.652 23.7783C285.9 23.7783 289.429 28.8203 288.673 37.3918H273.988C274.177 41.0472 276.005 43.4422 279.85 43.4422ZM282.497 33.1691C282.434 30.585 281.425 28.4422 278.526 28.4422C275.879 28.4422 274.366 30.1439 273.925 33.1691H282.497Z" fill="black"/>
<path d="M294.03 30.4589C292.266 30.4589 290.816 29.0093 290.816 27.1816C290.816 25.3539 292.266 23.9043 294.03 23.9043C295.795 23.9043 297.308 25.3539 297.308 27.1816C297.245 29.0093 295.795 30.4589 294.03 30.4589ZM294.03 24.4085C292.455 24.4085 291.32 25.543 291.32 27.1816C291.32 28.8203 292.455 29.9547 294.03 29.9547C295.606 29.9547 296.74 28.8203 296.74 27.1816C296.74 25.606 295.543 24.4085 294.03 24.4085ZM294.913 29.0724L294.03 27.7488C293.841 27.4967 293.715 27.3707 293.463 27.3707V29.0724H292.833V25.1648H294.093C294.913 25.1648 295.291 25.669 295.291 26.2362C295.291 26.8035 294.913 27.1816 294.282 27.2446C294.408 27.3707 294.597 27.4967 294.724 27.7488L295.606 29.0093L294.913 29.0724ZM293.967 25.732H293.4V26.9295H293.778C294.219 26.9295 294.66 26.8665 294.66 26.3623C294.66 25.9841 294.471 25.732 293.967 25.732Z" fill="black"/>
<path d="M54.2823 0.963416L0.899994 0.900391V0.963416V60.9004H54.2823V0.963416ZM42.6857 41.8668V44.3878C36.8244 44.3878 33.1689 42.497 30.837 40.1651C31.2151 41.2365 31.6563 42.371 32.2235 43.4424C36.1941 51.3206 43.1899 55.3542 53.4 55.4802V58.7575C39.0933 58.6315 32.4126 51.1315 29.2613 44.829C28.5681 43.4424 28.0008 42.0559 27.5597 40.7323C22.8328 52.392 9.9126 52.518 9.72352 52.518V48.8626C10.3538 48.8626 25.6689 48.3584 25.6689 30.8374H29.5765C29.5765 13.3164 44.8286 13.1903 45.4588 13.1903V9.53485C45.2697 9.53485 32.3496 9.72392 27.6227 21.3206C27.1815 19.997 26.6143 18.6105 25.921 17.2239C22.7697 11.0474 16.0891 3.54745 1.78235 3.4214V1.78274H53.4V30.9004H29.5134C29.5134 31.3416 29.7655 41.8668 42.6857 41.8668ZM1.78235 6.69871C11.9294 6.82476 18.9882 10.8584 22.9588 18.7365C23.526 19.871 23.9672 20.9424 24.3454 22.0138C22.0134 19.6819 18.358 17.7911 12.4966 17.7911V20.3122C25.4168 20.3122 25.6689 30.3962 25.6689 30.8374H1.78235V6.69871Z" fill="black"/>
</svg>
