<svg width="112" height="21" viewBox="0 0 112 21" fill="none" xmlns="http://www.w3.org/2000/svg">
<path d="M106.033 18.2C106.033 16.6654 107.381 15.4 109.016 15.4C110.652 15.4 112 16.6654 112 18.2C112 19.7346 110.652 21 109.016 21C107.381 21 106.033 19.7346 106.033 18.2Z" fill="#252F3F"/>
<path d="M11.3843 10.1557C11.3843 8.2623 11.0134 6.85656 10.3001 5.96721C9.58678 5.04918 8.47403 4.59016 6.99036 4.59016H5.4211V16.123H6.61945C8.27431 16.123 9.47266 15.6352 10.243 14.6598C10.9849 13.6844 11.3843 12.1639 11.3843 10.1557ZM16.9766 9.95492C16.9766 13.3975 16.0636 16.0369 14.209 17.9016C12.3829 19.7664 9.78651 20.6844 6.44825 20.6844H0V0.0860656H6.9333C10.1574 0.0860656 12.6397 0.918033 14.3802 2.61066C16.1206 4.30328 16.9766 6.77049 16.9766 9.95492ZM34.9233 20.6844H40.0876V0H34.9233V20.6844ZM47.3062 12.9672C47.3062 14.2869 47.4774 15.291 47.8198 15.9795C48.1622 16.668 48.7328 17.0123 49.5317 17.0123C50.3306 17.0123 50.9013 16.668 51.2151 15.9795C51.5575 15.291 51.7002 14.2869 51.7002 12.9672C51.7002 11.6475 51.529 10.6721 51.1866 9.98361C50.8442 9.32377 50.2736 8.97951 49.4747 8.97951C48.6758 8.97951 48.1051 9.32377 47.7627 9.98361C47.4774 10.6721 47.3062 11.6475 47.3062 12.9672ZM56.9786 12.9672C56.9786 15.4918 56.3224 17.4426 55.0099 18.8484C53.6974 20.2541 51.8714 20.9713 49.5032 20.9713C47.2492 20.9713 45.4231 20.2541 44.0821 18.8197C42.7411 17.3852 42.0848 15.4344 42.0848 12.9959C42.0848 10.5 42.7411 8.54918 44.0536 7.14344C45.366 5.76639 47.2206 5.04918 49.5888 5.04918C51.0439 5.04918 52.3564 5.36475 53.4692 6.02459C54.5819 6.65574 55.4664 7.57377 56.0656 8.77869C56.6933 9.98361 56.9786 11.3893 56.9786 12.9672ZM59.0329 20.6844H64.1972V5.30738H59.0329V20.6844ZM59.0329 3.47131H64.1972V0H59.0329V3.47131ZM74.64 16.7828C75.3247 16.7828 76.1522 16.6107 77.1223 16.2664V20.1393C76.4375 20.4549 75.7527 20.6557 75.125 20.7992C74.4973 20.9426 73.7555 21 72.928 21C71.1876 21 69.9607 20.5697 69.1903 19.6803C68.42 18.8197 68.049 17.4713 68.049 15.6639V9.29508H66.2515V5.33607H68.049V1.40574L73.2419 0.487705V5.33607H76.5231V9.32377H73.2419V15.3197C73.2419 16.2664 73.6984 16.7828 74.64 16.7828ZM86.5664 16.7828C87.2512 16.7828 88.0786 16.6107 89.0487 16.2664V20.1393C88.3639 20.4549 87.6791 20.6557 87.0514 20.7992C86.4237 20.9426 85.6819 21 84.8545 21C83.114 21 81.8871 20.5697 81.1168 19.6803C80.3464 18.791 79.9755 17.4713 79.9755 15.6639V9.29508H78.1779V5.33607H79.9755V1.34836L85.1683 0.487705V5.33607H88.4495V9.32377H85.1683V15.3197C85.1683 16.2664 85.6248 16.7828 86.5664 16.7828ZM95.554 11.1025C95.6111 10.2705 95.8679 9.63935 96.2673 9.23771C96.6667 8.83607 97.1803 8.63525 97.7795 8.63525C98.4357 8.63525 98.9779 8.86476 99.3488 9.29508C99.7482 9.72541 99.9479 10.3279 99.9479 11.0738L95.554 11.1025ZM102.801 6.85656C101.574 5.65164 99.8338 5.04918 97.5798 5.04918C95.2116 5.04918 93.3856 5.73771 92.1301 7.14344C90.8462 8.52049 90.2185 10.5287 90.2185 13.1107C90.2185 15.6352 90.9033 17.5574 92.2728 18.9344C93.6423 20.2828 95.5825 20.9713 98.0648 20.9713C99.2632 20.9713 100.29 20.8852 101.146 20.7131C102.002 20.541 102.83 20.2541 103.629 19.8525L102.83 16.3811C102.259 16.6107 101.688 16.8115 101.175 16.9262C100.404 17.0984 99.577 17.1844 98.6925 17.1844C97.6939 17.1844 96.9235 16.9262 96.3529 16.4385C95.7823 15.9508 95.4684 15.2623 95.4399 14.4303H104.656V12.0779C104.656 9.81148 104.028 8.06148 102.801 6.85656ZM23.8243 11.1025C23.8814 10.2705 24.1382 9.63935 24.5376 9.23771C24.9371 8.83607 25.4506 8.63525 26.0498 8.63525C26.706 8.63525 27.2196 8.86476 27.6191 9.29508C28.0185 9.72541 28.2182 10.3279 28.2182 11.0738L23.8243 11.1025ZM31.1 6.85656C29.8731 5.65164 28.1326 5.04918 25.8786 5.04918C23.5104 5.04918 21.6844 5.73771 20.429 7.14344C19.145 8.52049 18.5173 10.5287 18.5173 13.1107C18.5173 15.6352 19.2021 17.5574 20.5716 18.9344C21.9412 20.2828 23.8814 20.9713 26.3637 20.9713C27.562 20.9713 28.5892 20.8852 29.4451 20.7131C30.3011 20.541 31.1285 20.2541 31.9274 19.8525L31.1285 16.3811C30.5579 16.6107 29.9872 16.8115 29.4737 16.9262C28.7033 17.0984 27.8759 17.1844 26.9628 17.1844C25.9642 17.1844 25.1938 16.9262 24.6232 16.4385C24.0526 15.9508 23.7387 15.2623 23.7102 14.4303H32.926V12.0779C32.926 9.81148 32.3269 8.06148 31.1 6.85656Z" fill="#252F3F"/>
</svg>
