<svg width="86" height="40" viewBox="0 0 86 40" fill="none" xmlns="http://www.w3.org/2000/svg">
<path d="M85.9997 29.4119V28.1792H82.4163C81.7283 28.1792 81.1837 28.7239 81.1837 29.4119V37.9545C81.1837 38.2985 81.0977 38.4131 80.7537 38.4131H80.2664V39.6458H81.0977C82.445 39.6458 82.445 38.5565 82.445 38.1265V32.2785H84.1937V39.6171H85.4263V32.2785H85.9997V31.0458H82.445V29.9565C82.445 29.6125 82.6457 29.3832 82.9323 29.3832L85.9997 29.4119Z" fill="#232F40"/>
<path d="M77.2557 29.4119H80.323V28.1792H76.7684C76.0804 28.1792 75.5357 28.7239 75.5357 29.4119V37.9545C75.5357 38.2985 75.4497 38.4131 75.1057 38.4131H74.5897V39.6458H75.421C76.7684 39.6458 76.7684 38.5565 76.7684 38.1265V35.4032H80.1797V31.0172H76.7684V29.9279C76.7684 29.6412 76.9404 29.4119 77.2557 29.4119ZM78.947 34.1992H76.7684V32.3072H78.947V34.1992Z" fill="#232F40"/>
<path d="M44.7493 29.154L44.0326 27.8066H42.7999L43.5166 29.154H38.3566V30.3866H49.9092V29.154H44.7493Z" fill="#232F40"/>
<path d="M48.4752 33.9698H49.9086V32.7658H48.9626C48.6472 32.7658 48.3606 32.6225 47.6439 31.8771L46.8699 31.0745H45.1786L46.6693 32.5651L44.1466 34.7724L41.624 32.5651L43.1146 31.0745H41.4233L40.6493 31.8771C39.9326 32.5938 39.646 32.7658 39.3306 32.7658H38.3846V33.9698H39.818C40.0473 33.9698 40.2766 33.8838 40.7066 33.5111L43.1719 35.6611L40.592 37.9258C40.1906 38.2698 39.8466 38.4418 39.0726 38.4418H38.3846V39.6744C38.356 39.6744 39.474 39.6744 39.474 39.6744C40.3053 39.6744 40.5346 39.6457 41.1653 39.1584L44.1753 36.5498L47.1853 39.1584C47.8159 39.6457 48.0166 39.6744 48.8766 39.6744C48.8766 39.6744 49.9946 39.6744 49.9659 39.6744V38.4131H49.2779C48.4752 38.4131 48.1599 38.2411 47.7586 37.8971L45.1786 35.6324L47.6439 33.4824C48.0166 33.8838 48.2459 33.9698 48.4752 33.9698Z" fill="#232F40"/>
<path d="M61.5181 4.18531V0H50.8255H49.3635H46.6402V21.0412H49.3635H61.5181V16.8559H50.8255V12.5846H61.0021V8.39929H50.8255V4.18531H61.5181Z" fill="#232F40"/>
<path d="M14.3619 0V8.45662H4.18531V0H0V21.0412H4.18531V12.6133H14.3619V21.0412H18.5472V0H14.3619Z" fill="#232F40"/>
<path d="M42.9712 21.0412L35.1739 9.34528C35.5179 9.05861 36.0052 8.62862 36.2919 8.37062C39.9612 5.07397 40.3338 1.20399 40.3625 0H36.3205C36.3205 0.57333 36.1772 3.12465 33.6259 5.41797C32.4219 6.47863 30.4726 8.14129 28.8959 9.43128V0.0859995H24.7393V21.0412H28.8959V14.5339L28.9246 14.5626C29.0392 14.4766 30.4726 13.3013 32.1352 11.9253L38.1265 21.0412H42.9712Z" fill="#232F40"/>
<path d="M67.338 0V4.18531C70.8353 4.18531 73.6733 7.02329 73.6733 10.5206C73.6733 14.0179 70.8353 16.8559 67.338 16.8559V21.0125C73.1573 21.0125 77.8586 16.3112 77.8586 10.4919C77.8299 4.70131 73.1286 0 67.338 0Z" fill="#232F40"/>
<path d="M85.9999 0V4.18531C82.5025 4.18531 79.6646 7.02329 79.6646 10.5206C79.6646 14.0179 82.5025 16.8559 85.9999 16.8559V21.0125C80.1806 21.0125 75.4792 16.3112 75.4792 10.4919C75.4792 4.70131 80.1806 0 85.9999 0Z" fill="#232F40"/>
<path d="M67.9673 33.6545V29.6985C67.9673 29.2972 67.9386 28.1792 66.5913 28.1792H57.7333V33.6545H59.568C59.5393 33.7118 58.966 34.6865 58.9086 34.7438C58.5646 35.2598 58.4786 35.3745 57.8766 35.3745H56.816V36.6071H57.8766C58.8226 36.6071 59.2526 36.2918 59.654 35.8332H60.3993C60.1986 36.1772 59.31 37.7251 59.2813 37.7825C58.9373 38.2985 58.8513 38.4131 58.2493 38.4131H57.1886V39.6458H58.2493C59.4246 39.6458 59.8546 39.1585 60.3133 38.4705C60.3706 38.3558 61.7753 35.8905 61.804 35.8332H64.0973C63.9253 36.1772 63.0079 37.7251 62.9793 37.7825C62.6353 38.2985 62.5493 38.4131 61.9473 38.4131H60.8866V39.6458H61.9473C63.1226 39.6458 63.5526 39.1585 64.0113 38.4705C64.0686 38.3558 65.4733 35.8905 65.5019 35.8332H66.7633V37.8111C66.7633 38.2125 66.5913 38.4131 66.1326 38.4131H65.2153V39.6458H66.6773C68.0246 39.6458 68.0246 38.5565 68.0246 38.1265V34.5718H60.514C60.6573 34.3425 60.9153 33.8552 61.0586 33.6258L67.9673 33.6545ZM58.966 29.4119H66.1326C66.5626 29.4119 66.7346 29.6125 66.7346 29.9279V30.3865H58.9946V29.4119H58.966ZM58.966 31.4758H66.7059V32.4505H58.966V31.4758Z" fill="#232F40"/>
<path d="M21.3561 38.1552V34.7439H20.1235V38.0692C20.1235 38.3559 19.9515 38.4132 19.6935 38.4132H19.1775V39.6459H20.0088C21.3561 39.6745 21.3561 38.5565 21.3561 38.1552Z" fill="#232F40"/>
<path d="M19.2923 31.2466L20.009 33.1099L20.1236 33.4539H21.3563L20.525 31.2466H19.2923Z" fill="#232F40"/>
<path d="M19.2923 28.3225L20.009 30.2145L20.1236 30.5585H21.3563L20.525 28.3225H19.2923Z" fill="#232F40"/>
<path d="M27.8348 37.3239C28.1788 37.3239 29.0388 37.3239 29.2681 36.5213C29.2681 36.5213 29.2681 36.5213 29.2681 36.4926C29.2681 36.4639 29.2968 36.4066 29.2968 36.3779C29.2968 36.3493 29.3254 36.2919 29.3254 36.2346V36.2059C29.3254 36.1199 29.3541 36.0339 29.3541 35.9479V34.5719C29.5834 34.6579 29.8414 34.7153 30.0994 34.7153H30.9307V33.4253C30.9307 33.4253 30.0421 33.4253 30.0134 33.4253C29.8414 33.4253 29.6121 33.3393 29.0101 32.7086L28.8381 32.5366H30.4434V31.304H28.8954V30.3866H30.4434V29.154H28.8954V27.8066H27.6628V29.154H24.9394V27.8066H23.7641V29.154H22.2161V30.3866H23.7641V31.3326H22.2161V32.5653H23.8215L23.6781 32.7373C23.0188 33.4539 22.8181 33.4539 22.6175 33.4539H21.7861V34.7439H22.6175C22.8181 34.7439 23.0188 34.7153 23.1908 34.6579V38.1553C23.1908 38.5566 23.1908 39.6746 24.5381 39.6746H28.9528C29.3541 39.6746 30.4721 39.6746 30.4721 38.3272V37.4099H29.2394V37.9546C29.2394 38.2699 29.0674 38.4132 28.7808 38.4132H24.6528C24.5955 38.4132 24.3948 38.4132 24.3948 38.1839V37.3239H27.8348ZM28.0928 35.6326C28.0928 35.9479 27.9208 36.0913 27.6341 36.0913H24.4235V35.1166H28.0928V35.6326ZM24.9681 30.3866H27.6914V31.3326H24.9681V30.3866ZM25.5701 32.5653H27.0894C27.2041 32.6799 28.2361 33.7979 28.3508 33.9126H24.3375C24.4521 33.7979 25.4554 32.7086 25.5701 32.5653Z" fill="#232F40"/>
<path d="M10.4919 32.7086C10.2053 32.7086 9.97594 32.6799 9.25928 32.1066C9.14462 32.0206 9.00128 31.906 8.85795 31.7913H11.5526V30.5586H6.39263V29.67L10.1766 29.068V27.8066L5.87663 28.466C5.87663 28.466 4.78731 28.638 3.75531 28.638H1.34733V29.8706H3.75531C4.24264 29.8706 4.75864 29.842 5.15997 29.8133V30.5586H0V31.7913H2.69465C2.55132 31.906 2.40799 32.0206 2.29332 32.1066C1.60532 32.6799 1.34733 32.7086 1.06066 32.7086H0V33.9986H1.06066C1.74866 33.9986 2.26465 33.7693 3.09598 33.1099C3.49731 32.7659 4.24264 32.1639 4.72997 31.7913H5.15997V34.3713H1.34733V38.1839C1.34733 38.5852 1.34733 39.6746 2.69465 39.6746H10.2053V34.3713H6.39263V31.7913H6.79396C7.28129 32.1926 8.02662 32.7946 8.42795 33.1099C9.25928 33.7693 9.77528 33.9986 10.4633 33.9986H11.5239V32.7086H10.4919ZM8.97262 38.4132H3.00998C2.69465 38.4132 2.57999 38.2412 2.57999 37.8972V37.5533H8.97262V38.4132ZM8.97262 36.4926H2.57999V35.6039H8.97262V36.4926Z" fill="#232F40"/>
</svg>
