<svg width="107" height="17" viewBox="0 0 107 17" fill="none" xmlns="http://www.w3.org/2000/svg">
<path d="M45.961 15.1352L41.2759 2.09215C41.2181 1.91862 41.1313 1.68726 41.1313 1.4559C41.1313 0.877498 41.623 0.356934 42.2882 0.356934C42.8955 0.356934 43.2714 0.732897 43.445 1.3113L47.3203 12.5613L51.2245 1.28238C51.398 0.761816 51.774 0.356934 52.3524 0.356934H52.4681C53.1043 0.356934 53.4803 0.732895 53.6538 1.28238L57.5291 12.5613L61.4623 1.25346C61.6069 0.761814 61.925 0.356934 62.5612 0.356934C63.2264 0.356934 63.6891 0.848576 63.6891 1.42698C63.6891 1.62942 63.6024 1.86078 63.5445 2.06322L58.8305 15.1352C58.5992 15.8292 58.1075 16.1763 57.587 16.1763H57.5002C56.8929 16.1763 56.4591 15.8292 56.2566 15.1352L52.4392 4.0298L48.5638 15.1062C48.3614 15.8003 47.8987 16.1474 47.3203 16.1474H47.2624C46.684 16.1763 46.1924 15.8003 45.961 15.1352Z" fill="#2D323A"/>
<path d="M80.1158 1.49323C80.1158 0.85699 80.6364 0.336426 81.2437 0.336426C81.9089 0.336426 82.4005 0.85699 82.4005 1.49323V4.15389C83.5284 1.57999 86.0445 0.365348 87.7219 0.365348C88.4159 0.365348 88.8497 0.885912 88.8497 1.52216C88.8497 2.1584 88.4449 2.5922 87.8375 2.67896C84.8588 3.02601 82.4005 5.28178 82.4005 9.73549V14.9701C82.4005 15.6063 81.9089 16.1269 81.2727 16.1269C80.6075 16.1269 80.1158 15.6063 80.1158 14.9701V1.49323Z" fill="#2D323A"/>
<path d="M96.2674 16.2818C92.1029 16.2818 88.7192 13.0428 88.7192 8.32877V8.27093C88.7192 3.87506 91.7848 0.317871 95.9782 0.317871C100.461 0.317871 103.006 4.01966 103.006 8.06849C103.006 8.70473 102.514 9.13854 101.936 9.13854H90.975C91.2931 12.4644 93.6068 14.3153 96.2963 14.3153C98.1761 14.3153 99.5354 13.5633 100.663 12.5511C100.837 12.4065 101.039 12.2908 101.3 12.2908C101.849 12.2908 102.283 12.7246 102.283 13.2741C102.283 13.5344 102.167 13.7947 101.936 13.9971C100.548 15.3853 98.8413 16.2818 96.2674 16.2818ZM100.75 7.43224C100.519 4.6559 98.9281 2.2266 95.9204 2.2266C93.2886 2.2266 91.2931 4.45346 91.0039 7.43224H100.75Z" fill="#2D323A"/>
<path d="M63.7791 11.5161V11.4583C63.7791 8.21921 66.4686 6.484 70.3729 6.484C72.3394 6.484 73.7276 6.74428 75.1158 7.14916V6.59968C75.1158 3.82334 73.4095 2.40625 70.5175 2.40625C68.9558 2.40625 68.0592 2.60869 66.9314 3.10033C66.7868 3.15817 66.6422 3.1871 66.5265 3.1871C65.977 3.1871 65.5143 2.72437 65.5143 2.20381C65.5143 1.74109 65.7167 1.42296 66.1505 1.24944C67.6544 0.584277 68.8112 0.381836 70.7777 0.381836C72.9468 0.381836 74.6241 0.960238 75.752 2.08813C76.7932 3.12925 77.3426 4.63311 77.3426 6.59968V15.1022C77.3426 15.7674 76.8799 16.2301 76.2437 16.2301C75.5785 16.2301 75.1447 15.7385 75.1447 15.1601V13.6851C74.0746 15.1022 72.2816 16.3458 69.5631 16.3458C66.7 16.288 63.7791 14.6684 63.7791 11.5161ZM75.1447 10.3015V8.79762C74.0168 8.47949 72.484 8.13245 70.6042 8.13245C67.7122 8.13245 66.0927 9.37602 66.0927 11.3137V11.3715C66.0927 13.3092 67.8857 14.4371 69.968 14.4371C72.8311 14.4949 75.1447 12.7597 75.1447 10.3015Z" fill="#2D323A"/>
<path d="M4.20889 1.33032C3.71724 0.231355 2.44476 -0.289206 1.28795 0.231358C0.131143 0.751922 -0.302664 2.05333 0.2179 3.1523L5.10541 13.7949C5.88626 15.4723 6.69603 16.3399 8.19988 16.3399C9.81941 16.3399 10.5424 15.3855 11.2943 13.7949C11.2943 13.7949 15.5745 4.51155 15.6035 4.39587C15.6613 4.30911 15.777 3.99099 16.2108 3.99099C16.5867 3.99099 16.8759 4.28019 16.8759 4.68507V13.766C16.8759 15.1542 17.6568 16.311 19.1606 16.311C20.6645 16.311 21.4743 15.1542 21.4743 13.766V6.33352C21.4743 4.88751 22.5154 3.96206 23.9036 3.96206C25.2917 3.96206 26.2461 4.91643 26.2461 6.33352V13.766C26.2461 15.1542 27.0269 16.311 28.5308 16.311C30.0346 16.311 30.8444 15.1542 30.8444 13.766V6.33352C30.8444 4.88751 31.8566 3.96206 33.2737 3.96206C34.6619 3.96206 35.6162 4.91643 35.6162 6.33352V13.766C35.6162 15.1542 36.3971 16.311 37.9009 16.311C39.4048 16.311 40.2146 15.1542 40.2146 13.766V5.2924C40.2146 2.16901 37.7274 0 34.7197 0C31.712 0 29.8322 2.08225 29.8322 2.08225C28.82 0.78084 27.4607 0 25.1182 0C22.66 0 20.491 2.08225 20.491 2.08225C19.4788 0.78084 17.7725 0 16.3843 0C14.2153 0 12.4801 0.954362 11.41 3.38366L8.28664 10.7583L4.20889 1.33032Z" fill="#2D323A"/>
<path d="M103.182 2.22965C103.182 1.18852 104.021 0.291992 105.091 0.291992C106.161 0.291992 107 1.1596 107 2.20073C107 3.24186 106.161 4.10946 105.091 4.10946C104.021 4.13838 103.182 3.27078 103.182 2.22965ZM106.624 2.22965C106.624 1.36204 105.959 0.667951 105.091 0.667951C104.224 0.667951 103.558 1.39096 103.558 2.22965C103.558 3.09726 104.224 3.79134 105.091 3.79134C105.959 3.79134 106.624 3.06834 106.624 2.22965Z" fill="#2D323A"/>
<path d="M104.353 1.47051C104.353 1.35483 104.44 1.26807 104.556 1.26807H105.192C105.423 1.26807 105.626 1.32591 105.741 1.47051C105.857 1.58619 105.915 1.73079 105.915 1.90431C105.915 2.19352 105.77 2.36704 105.539 2.4538L105.828 2.80084C105.857 2.85868 105.886 2.8876 105.886 2.94544C105.886 3.06112 105.799 3.11897 105.684 3.11897C105.597 3.11897 105.539 3.06112 105.481 3.00328L105.076 2.51164H104.758V2.91652C104.758 3.0322 104.671 3.11897 104.556 3.11897C104.44 3.11897 104.353 3.0322 104.353 2.91652V1.47051ZM105.192 2.16459C105.394 2.16459 105.51 2.04892 105.51 1.90431C105.51 1.73079 105.394 1.64403 105.192 1.64403H104.787V2.16459H105.192Z" fill="#2D323A"/>
</svg>
